<svg xmlns="http://www.w3.org/2000/svg" viewBox="0 0 500 500">
  <defs>
    <style>
      .a {
        fill: #fcee21;
      }
    </style>
  </defs>
  <circle class="a" cx="250" cy="250" r="110.5"/>
  <polygon class="a" points="217.6 108 282.4 108 250 23.1 217.6 108"/>
  <polygon class="a" points="282.4 392 217.6 392 250 476.9 282.4 392"/>
  <polygon class="a" points="393.7 217.6 393.7 282.4 478.6 250 393.7 217.6"/>
  <polygon class="a" points="106.3 282.4 106.3 217.6 21.4 250 106.3 282.4"/>
  <polygon class="a" points="126.7 171.9 172.4 126.1 89.6 89 126.7 171.9"/>
  <polygon class="a" points="373.4 328.1 327.7 373.9 410.6 411 373.4 328.1"/>
  <polygon class="a" points="327.7 126.1 373.4 171.9 410.6 89 327.7 126.1"/>
  <polygon class="a" points="172.4 373.9 126.7 328.1 89.6 411 172.4 373.9"/>
</svg>
